<?xml version="1.0" encoding="utf-8"?>
<!-- Generator: Adobe Illustrator 21.0.0, SVG Export Plug-In . SVG Version: 6.00 Build 0)  -->
<svg version="1.1" id="图层_1" xmlns="http://www.w3.org/2000/svg" xmlns:xlink="http://www.w3.org/1999/xlink" x="0px" y="0px"
	 viewBox="0 0 750.1 710.4" style="enable-background:new 0 0 750.1 710.4;" xml:space="preserve">
<style type="text/css">
	.st0{fill:none;stroke:currentColor;stroke-width:40;stroke-miterlimit:10;}
	.st1{fill:#FFFFFF;stroke:currentColor;stroke-width:40;stroke-miterlimit:10;}
</style>
<title>资源 4</title>
<line class="st0" x1="387.5" y1="14.1" x2="238.5" y2="163.2"/>
<line class="st0" x1="87.2" y1="314.5" x2="14.1" y2="387.5"/>
<line class="st0" x1="459.1" y1="17" x2="241.3" y2="234.8"/>
<line class="st0" x1="128.8" y1="347.2" x2="18.4" y2="457.7"/>
<line class="st0" x1="511.4" y1="39" x2="263.4" y2="287.1"/>
<line class="st0" x1="182.4" y1="368.1" x2="35.2" y2="515.2"/>
<line class="st0" x1="440.6" y1="187.6" x2="302.4" y2="325.8"/>
<line class="st0" x1="554.1" y1="73.1" x2="468.6" y2="158.6"/>
<line class="st0" x1="263.4" y1="364.8" x2="63" y2="565.2"/>
<polyline class="st1" points="96.3,608.2 346.6,358 582.4,122.2 "/>
<polyline class="st1" points="136.4,642.6 407.2,371.8 596.1,182.9 "/>
<polyline class="st1" points="183.6,669.8 503.7,349.7 504.4,349 573.3,280.1 661.3,192.1 "/>
<line class="st0" x1="537.5" y1="390.3" x2="239" y2="688.8"/>
<line class="st0" x1="736" y1="191.9" x2="660.5" y2="267.3"/>
<line class="st0" x1="559.1" y1="443.2" x2="306" y2="696.3"/>
<line class="st0" x1="560.8" y1="515.8" x2="394.3" y2="682.3"/>
</svg>
